<?xml version="1.0" standalone="no"?>
<!DOCTYPE svg PUBLIC "-//W3C//DTD SVG 20010904//EN"
 "http://www.w3.org/TR/2001/REC-SVG-20010904/DTD/svg10.dtd">
<svg version="1.0" xmlns="http://www.w3.org/2000/svg"
 width="512.000000pt" height="512.000000pt" viewBox="0 0 512.000000 512.000000"
 preserveAspectRatio="xMidYMid meet">
<metadata>
Created by potrace 1.14, written by Peter Selinger 2001-2017
</metadata>
<g transform="translate(0.000000,512.000000) scale(0.100000,-0.100000)"
fill="#000000" stroke="none">
<path d="M2380 5010 c-846 -67 -1588 -549 -1984 -1288 -142 -267 -230 -541
-273 -849 -21 -157 -21 -469 0 -626 130 -950 762 -1715 1667 -2020 243 -82
488 -120 770 -120 282 0 527 38 770 120 894 301 1520 1049 1661 1986 27 181
30 484 6 660 -126 916 -718 1663 -1576 1987 -315 119 -712 176 -1041 150z
m987 -1206 c188 -148 342 -272 342 -275 1 -3 -17 -27 -40 -53 l-41 -46 61 -85
61 -85 0 -89 0 -89 -170 -138 c-94 -77 -176 -140 -183 -141 -7 -1 -142 153
-301 342 l-288 345 -169 0 c-93 0 -169 3 -169 8 0 4 31 62 68 130 l67 123 200
164 c110 90 205 163 210 161 6 -1 164 -124 352 -272z m119 -1306 c405 -480
746 -883 757 -895 l20 -23 -57 -267 c-32 -148 -60 -271 -63 -276 -2 -4 -151
-7 -330 -7 -298 0 -325 1 -319 17 4 9 14 44 22 79 l16 62 -603 714 c-331 392
-649 768 -706 835 l-104 122 146 256 147 255 168 0 169 0 737 -872z m-1116
-123 c161 -192 302 -360 312 -371 20 -22 19 -22 -76 -168 l-95 -146 -303 -1
-303 0 -253 -330 -254 -329 -269 0 -269 0 0 335 0 335 252 320 251 320 96 0
96 0 245 210 c229 196 246 209 261 192 9 -9 148 -174 309 -367z m389 -1004
l160 -200 -28 -68 -28 -68 -401 -3 -402 -2 1 22 c0 13 4 45 8 71 8 48 8 49
-75 177 -118 184 -112 163 -64 220 l42 50 314 0 313 0 160 -199z"/>
</g>
</svg>
